<svg xmlns="http://www.w3.org/2000/svg" viewBox="0 0 820 180" role="img" aria-labelledby="title desc">
  <title id="title">GraceMed</title>
  <desc id="desc">GraceMed Modern Healthcare Websites logo</desc>
  <g fill="none" fill-rule="evenodd">
    <g transform="translate(24 18)" fill="#7FA89B">
      <path d="M72 69C49 43 26 33 0 36c3 29 25 51 66 58 2-9 4-17 6-25Z" opacity=".9"/>
      <path d="M91 67c10-35 5-61-16-67-22 23-26 51-9 83 8-7 16-12 25-16Z" opacity=".95"/>
      <path d="M105 94c42-7 65-29 69-58-27-3-51 8-74 36 3 7 4 14 5 22Z" opacity=".75"/>
    </g>
    <text x="230" y="95" fill="#0F2D52" font-family="Georgia, 'Times New Roman', serif" font-size="84" font-weight="700" letter-spacing="-3">GraceMed</text>
    <text x="233" y="143" fill="#5C8A79" font-family="Inter, Arial, sans-serif" font-size="22" font-weight="700" letter-spacing="9">MODERN HEALTHCARE WEBSITES</text>
  </g>
</svg>
